G04 #@! TF.FileFunction,Soldermask,Bot*
%FSLAX46Y46*%
G04 Gerber Fmt 4.6, Leading zero omitted, Abs format (unit mm)*
G04 Created by KiCad (PCBNEW (2015-09-06 BZR 6161, Git 6b3ff2d)-product) date 22.02.2016 21:54:41*
%MOMM*%
G01*
G04 APERTURE LIST*
%ADD10C,0.100000*%
%ADD11R,1.700000X1.700000*%
%ADD12C,1.700000*%
%ADD13C,2.400000*%
%ADD14R,2.127200X2.127200*%
%ADD15O,2.127200X2.127200*%
%ADD16O,2.398980X1.901140*%
%ADD17O,1.901140X2.398980*%
%ADD18O,2.899360X1.901140*%
%ADD19C,2.398980*%
%ADD20C,1.924000*%
%ADD21O,2.700000X2.000000*%
%ADD22C,1.974800*%
%ADD23C,3.400000*%
%ADD24C,4.464000*%
G04 APERTURE END LIST*
D10*
D11*
X78740000Y-44530000D03*
D12*
X83740000Y-44530000D03*
D11*
X92710000Y-44450000D03*
D12*
X95210000Y-44450000D03*
D11*
X96520000Y-29210000D03*
D12*
X96520000Y-34210000D03*
D11*
X78740000Y-80090000D03*
D12*
X83740000Y-80090000D03*
D13*
X109220000Y-52070000D03*
X109220000Y-46990000D03*
X109220000Y-41910000D03*
X109220000Y-36830000D03*
X109220000Y-102870000D03*
X109220000Y-97790000D03*
X109220000Y-92710000D03*
X109220000Y-87630000D03*
D14*
X39370000Y-39450000D03*
D15*
X41910000Y-39450000D03*
X39370000Y-41990000D03*
X41910000Y-41990000D03*
X39370000Y-44530000D03*
X41910000Y-44530000D03*
X39370000Y-47070000D03*
X41910000Y-47070000D03*
X39370000Y-49610000D03*
X41910000Y-49610000D03*
X39370000Y-52150000D03*
X41910000Y-52150000D03*
X39370000Y-54690000D03*
X41910000Y-54690000D03*
X39370000Y-57230000D03*
X41910000Y-57230000D03*
X39370000Y-59770000D03*
X41910000Y-59770000D03*
X39370000Y-62310000D03*
X41910000Y-62310000D03*
X39370000Y-64850000D03*
X41910000Y-64850000D03*
X39370000Y-67390000D03*
X41910000Y-67390000D03*
X39370000Y-69930000D03*
X41910000Y-69930000D03*
X39370000Y-72470000D03*
X41910000Y-72470000D03*
X39370000Y-75010000D03*
X41910000Y-75010000D03*
X39370000Y-77550000D03*
X41910000Y-77550000D03*
X39370000Y-80090000D03*
X41910000Y-80090000D03*
X39370000Y-82630000D03*
X41910000Y-82630000D03*
X39370000Y-85170000D03*
X41910000Y-85170000D03*
X39370000Y-87710000D03*
X41910000Y-87710000D03*
X39370000Y-90250000D03*
X41910000Y-90250000D03*
X39370000Y-92790000D03*
X41910000Y-92790000D03*
X39370000Y-95330000D03*
X41910000Y-95330000D03*
X39370000Y-97870000D03*
X41910000Y-97870000D03*
X39370000Y-100410000D03*
X41910000Y-100410000D03*
D14*
X25400000Y-59770000D03*
D15*
X27940000Y-59770000D03*
X25400000Y-62310000D03*
X27940000Y-62310000D03*
X25400000Y-64850000D03*
X27940000Y-64850000D03*
X25400000Y-67390000D03*
X27940000Y-67390000D03*
X25400000Y-69930000D03*
X27940000Y-69930000D03*
X25400000Y-72470000D03*
X27940000Y-72470000D03*
X25400000Y-75010000D03*
X27940000Y-75010000D03*
X25400000Y-77550000D03*
X27940000Y-77550000D03*
X25400000Y-80090000D03*
X27940000Y-80090000D03*
X25400000Y-82630000D03*
X27940000Y-82630000D03*
D16*
X101600000Y-106680000D03*
D17*
X104140000Y-109220000D03*
X104140000Y-104140000D03*
D18*
X104140000Y-95250000D03*
X104140000Y-97790000D03*
X104140000Y-92710000D03*
D19*
X97790000Y-114300000D03*
X97790000Y-104140000D03*
X92710000Y-109220000D03*
X92710000Y-99060000D03*
X104140000Y-76200000D03*
X104140000Y-66040000D03*
X97790000Y-73660000D03*
X97790000Y-53660000D03*
D20*
X99060000Y-82550000D03*
X101600000Y-80010000D03*
X101600000Y-85090000D03*
X104140000Y-48260000D03*
X104140000Y-45720000D03*
X104140000Y-43180000D03*
D18*
X104140000Y-58420000D03*
X104140000Y-60960000D03*
X104140000Y-55880000D03*
D21*
X73660000Y-48340000D03*
X73660000Y-50880000D03*
X73660000Y-53420000D03*
X73660000Y-55960000D03*
X73660000Y-58500000D03*
X73660000Y-61040000D03*
X73660000Y-63580000D03*
X73660000Y-66120000D03*
X73660000Y-68660000D03*
X73660000Y-71200000D03*
X73660000Y-73740000D03*
X73660000Y-76280000D03*
X88900000Y-76280000D03*
X88900000Y-73740000D03*
X88900000Y-71200000D03*
X88900000Y-68660000D03*
X88900000Y-66120000D03*
X88900000Y-63580000D03*
X88900000Y-61040000D03*
X88900000Y-58500000D03*
X88900000Y-55960000D03*
X88900000Y-53420000D03*
X88900000Y-50880000D03*
X88900000Y-48340000D03*
X55880000Y-76280000D03*
X55880000Y-73740000D03*
X55880000Y-71200000D03*
X55880000Y-68660000D03*
X55880000Y-66120000D03*
X55880000Y-63580000D03*
X55880000Y-61040000D03*
X55880000Y-58500000D03*
X55880000Y-55960000D03*
X48260000Y-55960000D03*
X48260000Y-58500000D03*
X48260000Y-61040000D03*
X48260000Y-63580000D03*
X48260000Y-66120000D03*
X48260000Y-68660000D03*
X48260000Y-71200000D03*
X48260000Y-73740000D03*
X48260000Y-76280000D03*
X55880000Y-104220000D03*
X55880000Y-101680000D03*
X55880000Y-99140000D03*
X55880000Y-96600000D03*
X55880000Y-94060000D03*
X55880000Y-91520000D03*
X55880000Y-88980000D03*
X55880000Y-86440000D03*
X55880000Y-83900000D03*
X48260000Y-83900000D03*
X48260000Y-86440000D03*
X48260000Y-88980000D03*
X48260000Y-91520000D03*
X48260000Y-94060000D03*
X48260000Y-96600000D03*
X48260000Y-99140000D03*
X48260000Y-101680000D03*
X48260000Y-104220000D03*
D22*
X53340000Y-39370000D03*
X55880000Y-39370000D03*
X58420000Y-39370000D03*
X60960000Y-39370000D03*
X63500000Y-39370000D03*
X66040000Y-39370000D03*
X68580000Y-39370000D03*
X71120000Y-39370000D03*
X73660000Y-39370000D03*
X76200000Y-39370000D03*
X78740000Y-39370000D03*
X81280000Y-39370000D03*
X83820000Y-39370000D03*
X86360000Y-39370000D03*
X88900000Y-39370000D03*
X88900000Y-24130000D03*
X86360000Y-24130000D03*
X83820000Y-24130000D03*
X81280000Y-24130000D03*
X78740000Y-24130000D03*
X76200000Y-24130000D03*
X73660000Y-24130000D03*
X71120000Y-24130000D03*
X68580000Y-24130000D03*
X66040000Y-24130000D03*
X63500000Y-24130000D03*
X60960000Y-24130000D03*
X58420000Y-24130000D03*
X55880000Y-24130000D03*
X53340000Y-24130000D03*
D21*
X68580000Y-76280000D03*
X68580000Y-73740000D03*
X68580000Y-71200000D03*
X68580000Y-68660000D03*
X68580000Y-66120000D03*
X68580000Y-63580000D03*
X68580000Y-61040000D03*
X68580000Y-58500000D03*
X68580000Y-55960000D03*
X60960000Y-55960000D03*
X60960000Y-58500000D03*
X60960000Y-61040000D03*
X60960000Y-63580000D03*
X60960000Y-66120000D03*
X60960000Y-68660000D03*
X60960000Y-71200000D03*
X60960000Y-73740000D03*
X60960000Y-76280000D03*
X68580000Y-104220000D03*
X68580000Y-101680000D03*
X68580000Y-99140000D03*
X68580000Y-96600000D03*
X68580000Y-94060000D03*
X68580000Y-91520000D03*
X68580000Y-88980000D03*
X68580000Y-86440000D03*
X68580000Y-83900000D03*
X60960000Y-83900000D03*
X60960000Y-86440000D03*
X60960000Y-88980000D03*
X60960000Y-91520000D03*
X60960000Y-94060000D03*
X60960000Y-96600000D03*
X60960000Y-99140000D03*
X60960000Y-101680000D03*
X60960000Y-104220000D03*
X73660000Y-83900000D03*
X73660000Y-86440000D03*
X73660000Y-88980000D03*
X73660000Y-91520000D03*
X73660000Y-94060000D03*
X73660000Y-96600000D03*
X73660000Y-99140000D03*
X73660000Y-101680000D03*
X73660000Y-104220000D03*
X73660000Y-106760000D03*
X73660000Y-109300000D03*
X73660000Y-111840000D03*
X88900000Y-111840000D03*
X88900000Y-109300000D03*
X88900000Y-106760000D03*
X88900000Y-104220000D03*
X88900000Y-101680000D03*
X88900000Y-99140000D03*
X88900000Y-96600000D03*
X88900000Y-94060000D03*
X88900000Y-91520000D03*
X88900000Y-88980000D03*
X88900000Y-86440000D03*
X88900000Y-83900000D03*
D19*
X92710000Y-94060000D03*
X92710000Y-83900000D03*
X92710000Y-58500000D03*
X92710000Y-48340000D03*
D23*
X113030000Y-58420000D03*
X113030000Y-80920000D03*
D24*
X25000000Y-25000000D03*
X115000000Y-25000000D03*
X25000000Y-115000000D03*
X115000000Y-115000000D03*
M02*
