G04 #@! TF.FileFunction,Legend,Top*
%FSLAX46Y46*%
G04 Gerber Fmt 4.6, Leading zero omitted, Abs format (unit mm)*
G04 Created by KiCad (PCBNEW (2015-09-06 BZR 6161, Git 6b3ff2d)-product) date 22.02.2016 21:54:41*
%MOMM*%
G01*
G04 APERTURE LIST*
%ADD10C,0.100000*%
%ADD11C,0.300000*%
%ADD12C,0.200000*%
%ADD13C,0.250000*%
%ADD14C,0.150000*%
%ADD15C,0.304800*%
G04 APERTURE END LIST*
D10*
D11*
X65678571Y-71392857D02*
X64178571Y-71392857D01*
X64892857Y-71392857D02*
X64892857Y-70535714D01*
X65678571Y-70535714D02*
X64178571Y-70535714D01*
X65678571Y-69821428D02*
X64178571Y-69821428D01*
X64250000Y-68321428D02*
X64178571Y-68464285D01*
X64178571Y-68678571D01*
X64250000Y-68892856D01*
X64392857Y-69035714D01*
X64535714Y-69107142D01*
X64821429Y-69178571D01*
X65035714Y-69178571D01*
X65321429Y-69107142D01*
X65464286Y-69035714D01*
X65607143Y-68892856D01*
X65678571Y-68678571D01*
X65678571Y-68535714D01*
X65607143Y-68321428D01*
X65535714Y-68249999D01*
X65035714Y-68249999D01*
X65035714Y-68535714D01*
X65678571Y-67607142D02*
X64178571Y-67607142D01*
X64892857Y-67607142D02*
X64892857Y-66749999D01*
X65678571Y-66749999D02*
X64178571Y-66749999D01*
X65607143Y-64964285D02*
X65678571Y-64749999D01*
X65678571Y-64392856D01*
X65607143Y-64249999D01*
X65535714Y-64178570D01*
X65392857Y-64107142D01*
X65250000Y-64107142D01*
X65107143Y-64178570D01*
X65035714Y-64249999D01*
X64964286Y-64392856D01*
X64892857Y-64678570D01*
X64821429Y-64821428D01*
X64750000Y-64892856D01*
X64607143Y-64964285D01*
X64464286Y-64964285D01*
X64321429Y-64892856D01*
X64250000Y-64821428D01*
X64178571Y-64678570D01*
X64178571Y-64321428D01*
X64250000Y-64107142D01*
X65678571Y-63464285D02*
X64178571Y-63464285D01*
X65678571Y-62749999D02*
X64178571Y-62749999D01*
X64178571Y-62392856D01*
X64250000Y-62178571D01*
X64392857Y-62035713D01*
X64535714Y-61964285D01*
X64821429Y-61892856D01*
X65035714Y-61892856D01*
X65321429Y-61964285D01*
X65464286Y-62035713D01*
X65607143Y-62178571D01*
X65678571Y-62392856D01*
X65678571Y-62749999D01*
X64892857Y-61249999D02*
X64892857Y-60749999D01*
X65678571Y-60535713D02*
X65678571Y-61249999D01*
X64178571Y-61249999D01*
X64178571Y-60535713D01*
X65678571Y-99392857D02*
X64178571Y-99392857D01*
X64892857Y-99392857D02*
X64892857Y-98535714D01*
X65678571Y-98535714D02*
X64178571Y-98535714D01*
X65678571Y-97821428D02*
X64178571Y-97821428D01*
X64250000Y-96321428D02*
X64178571Y-96464285D01*
X64178571Y-96678571D01*
X64250000Y-96892856D01*
X64392857Y-97035714D01*
X64535714Y-97107142D01*
X64821429Y-97178571D01*
X65035714Y-97178571D01*
X65321429Y-97107142D01*
X65464286Y-97035714D01*
X65607143Y-96892856D01*
X65678571Y-96678571D01*
X65678571Y-96535714D01*
X65607143Y-96321428D01*
X65535714Y-96249999D01*
X65035714Y-96249999D01*
X65035714Y-96535714D01*
X65678571Y-95607142D02*
X64178571Y-95607142D01*
X64892857Y-95607142D02*
X64892857Y-94749999D01*
X65678571Y-94749999D02*
X64178571Y-94749999D01*
X65607143Y-92964285D02*
X65678571Y-92749999D01*
X65678571Y-92392856D01*
X65607143Y-92249999D01*
X65535714Y-92178570D01*
X65392857Y-92107142D01*
X65250000Y-92107142D01*
X65107143Y-92178570D01*
X65035714Y-92249999D01*
X64964286Y-92392856D01*
X64892857Y-92678570D01*
X64821429Y-92821428D01*
X64750000Y-92892856D01*
X64607143Y-92964285D01*
X64464286Y-92964285D01*
X64321429Y-92892856D01*
X64250000Y-92821428D01*
X64178571Y-92678570D01*
X64178571Y-92321428D01*
X64250000Y-92107142D01*
X65678571Y-91464285D02*
X64178571Y-91464285D01*
X65678571Y-90749999D02*
X64178571Y-90749999D01*
X64178571Y-90392856D01*
X64250000Y-90178571D01*
X64392857Y-90035713D01*
X64535714Y-89964285D01*
X64821429Y-89892856D01*
X65035714Y-89892856D01*
X65321429Y-89964285D01*
X65464286Y-90035713D01*
X65607143Y-90178571D01*
X65678571Y-90392856D01*
X65678571Y-90749999D01*
X64892857Y-89249999D02*
X64892857Y-88749999D01*
X65678571Y-88535713D02*
X65678571Y-89249999D01*
X64178571Y-89249999D01*
X64178571Y-88535713D01*
X52678571Y-98250000D02*
X52678571Y-98964286D01*
X51178571Y-98964286D01*
X51178571Y-97464286D02*
X51178571Y-97178572D01*
X51250000Y-97035714D01*
X51392857Y-96892857D01*
X51678571Y-96821429D01*
X52178571Y-96821429D01*
X52464286Y-96892857D01*
X52607143Y-97035714D01*
X52678571Y-97178572D01*
X52678571Y-97464286D01*
X52607143Y-97607143D01*
X52464286Y-97750000D01*
X52178571Y-97821429D01*
X51678571Y-97821429D01*
X51392857Y-97750000D01*
X51250000Y-97607143D01*
X51178571Y-97464286D01*
X51178571Y-96321428D02*
X52678571Y-95964285D01*
X51607143Y-95678571D01*
X52678571Y-95392857D01*
X51178571Y-95035714D01*
X52607143Y-93392857D02*
X52678571Y-93178571D01*
X52678571Y-92821428D01*
X52607143Y-92678571D01*
X52535714Y-92607142D01*
X52392857Y-92535714D01*
X52250000Y-92535714D01*
X52107143Y-92607142D01*
X52035714Y-92678571D01*
X51964286Y-92821428D01*
X51892857Y-93107142D01*
X51821429Y-93250000D01*
X51750000Y-93321428D01*
X51607143Y-93392857D01*
X51464286Y-93392857D01*
X51321429Y-93321428D01*
X51250000Y-93250000D01*
X51178571Y-93107142D01*
X51178571Y-92750000D01*
X51250000Y-92535714D01*
X52678571Y-91892857D02*
X51178571Y-91892857D01*
X52678571Y-91178571D02*
X51178571Y-91178571D01*
X51178571Y-90821428D01*
X51250000Y-90607143D01*
X51392857Y-90464285D01*
X51535714Y-90392857D01*
X51821429Y-90321428D01*
X52035714Y-90321428D01*
X52321429Y-90392857D01*
X52464286Y-90464285D01*
X52607143Y-90607143D01*
X52678571Y-90821428D01*
X52678571Y-91178571D01*
X51892857Y-89678571D02*
X51892857Y-89178571D01*
X52678571Y-88964285D02*
X52678571Y-89678571D01*
X51178571Y-89678571D01*
X51178571Y-88964285D01*
X52678571Y-70250000D02*
X52678571Y-70964286D01*
X51178571Y-70964286D01*
X51178571Y-69464286D02*
X51178571Y-69178572D01*
X51250000Y-69035714D01*
X51392857Y-68892857D01*
X51678571Y-68821429D01*
X52178571Y-68821429D01*
X52464286Y-68892857D01*
X52607143Y-69035714D01*
X52678571Y-69178572D01*
X52678571Y-69464286D01*
X52607143Y-69607143D01*
X52464286Y-69750000D01*
X52178571Y-69821429D01*
X51678571Y-69821429D01*
X51392857Y-69750000D01*
X51250000Y-69607143D01*
X51178571Y-69464286D01*
X51178571Y-68321428D02*
X52678571Y-67964285D01*
X51607143Y-67678571D01*
X52678571Y-67392857D01*
X51178571Y-67035714D01*
X52607143Y-65392857D02*
X52678571Y-65178571D01*
X52678571Y-64821428D01*
X52607143Y-64678571D01*
X52535714Y-64607142D01*
X52392857Y-64535714D01*
X52250000Y-64535714D01*
X52107143Y-64607142D01*
X52035714Y-64678571D01*
X51964286Y-64821428D01*
X51892857Y-65107142D01*
X51821429Y-65250000D01*
X51750000Y-65321428D01*
X51607143Y-65392857D01*
X51464286Y-65392857D01*
X51321429Y-65321428D01*
X51250000Y-65250000D01*
X51178571Y-65107142D01*
X51178571Y-64750000D01*
X51250000Y-64535714D01*
X52678571Y-63892857D02*
X51178571Y-63892857D01*
X52678571Y-63178571D02*
X51178571Y-63178571D01*
X51178571Y-62821428D01*
X51250000Y-62607143D01*
X51392857Y-62464285D01*
X51535714Y-62392857D01*
X51821429Y-62321428D01*
X52035714Y-62321428D01*
X52321429Y-62392857D01*
X52464286Y-62464285D01*
X52607143Y-62607143D01*
X52678571Y-62821428D01*
X52678571Y-63178571D01*
X51892857Y-61678571D02*
X51892857Y-61178571D01*
X52678571Y-60964285D02*
X52678571Y-61678571D01*
X51178571Y-61678571D01*
X51178571Y-60964285D01*
D12*
X109785714Y-79000000D02*
X110071429Y-79761905D01*
X110357143Y-79000000D01*
X109928571Y-78523810D02*
X109928571Y-77761905D01*
X110214286Y-77761905D02*
X110214286Y-78523810D01*
X110071429Y-76523810D02*
X110071429Y-75761905D01*
X109452381Y-75095239D02*
X109452381Y-74904762D01*
X109500000Y-74809524D01*
X109595238Y-74714286D01*
X109785714Y-74666667D01*
X110119048Y-74666667D01*
X110309524Y-74714286D01*
X110404762Y-74809524D01*
X110452381Y-74904762D01*
X110452381Y-75095239D01*
X110404762Y-75190477D01*
X110309524Y-75285715D01*
X110119048Y-75333334D01*
X109785714Y-75333334D01*
X109595238Y-75285715D01*
X109500000Y-75190477D01*
X109452381Y-75095239D01*
X109452381Y-74238096D02*
X110261905Y-74238096D01*
X110357143Y-74190477D01*
X110404762Y-74142858D01*
X110452381Y-74047620D01*
X110452381Y-73857143D01*
X110404762Y-73761905D01*
X110357143Y-73714286D01*
X110261905Y-73666667D01*
X109452381Y-73666667D01*
X109452381Y-73333334D02*
X109452381Y-72761905D01*
X110452381Y-73047620D02*
X109452381Y-73047620D01*
X110785714Y-72190477D02*
X109357143Y-72190477D01*
X110071429Y-71476191D02*
X110071429Y-70714286D01*
X110452381Y-71095238D02*
X109690476Y-71095238D01*
X109452381Y-70047620D02*
X109452381Y-69857143D01*
X109500000Y-69761905D01*
X109595238Y-69666667D01*
X109785714Y-69619048D01*
X110119048Y-69619048D01*
X110309524Y-69666667D01*
X110404762Y-69761905D01*
X110452381Y-69857143D01*
X110452381Y-70047620D01*
X110404762Y-70142858D01*
X110309524Y-70238096D01*
X110119048Y-70285715D01*
X109785714Y-70285715D01*
X109595238Y-70238096D01*
X109500000Y-70142858D01*
X109452381Y-70047620D01*
X109452381Y-69190477D02*
X110261905Y-69190477D01*
X110357143Y-69142858D01*
X110404762Y-69095239D01*
X110452381Y-69000001D01*
X110452381Y-68809524D01*
X110404762Y-68714286D01*
X110357143Y-68666667D01*
X110261905Y-68619048D01*
X109452381Y-68619048D01*
X109452381Y-68285715D02*
X109452381Y-67714286D01*
X110452381Y-68000001D02*
X109452381Y-68000001D01*
X110785714Y-67142858D02*
X109357143Y-67142858D01*
X110071429Y-66428572D02*
X110071429Y-65666667D01*
X110452381Y-66047619D02*
X109690476Y-66047619D01*
X110452381Y-65190477D02*
X109452381Y-65190477D01*
X110452381Y-64714287D02*
X109452381Y-64714287D01*
X110452381Y-64142858D01*
X109452381Y-64142858D01*
X110785714Y-63428573D02*
X109357143Y-63428573D01*
X110071429Y-62714287D02*
X110071429Y-61952382D01*
X110452381Y-61476192D02*
X109452381Y-61476192D01*
X110452381Y-61000002D02*
X109452381Y-61000002D01*
X110452381Y-60428573D01*
X109452381Y-60428573D01*
D11*
X112117143Y-102977143D02*
X113260000Y-102977143D01*
X114260000Y-102048571D02*
X114545714Y-102048571D01*
X114688572Y-102120000D01*
X114831429Y-102262857D01*
X114902857Y-102548571D01*
X114902857Y-103048571D01*
X114831429Y-103334286D01*
X114688572Y-103477143D01*
X114545714Y-103548571D01*
X114260000Y-103548571D01*
X114117143Y-103477143D01*
X113974286Y-103334286D01*
X113902857Y-103048571D01*
X113902857Y-102548571D01*
X113974286Y-102262857D01*
X114117143Y-102120000D01*
X114260000Y-102048571D01*
X115545715Y-102048571D02*
X115545715Y-103262857D01*
X115617143Y-103405714D01*
X115688572Y-103477143D01*
X115831429Y-103548571D01*
X116117143Y-103548571D01*
X116260001Y-103477143D01*
X116331429Y-103405714D01*
X116402858Y-103262857D01*
X116402858Y-102048571D01*
X116902858Y-102048571D02*
X117760001Y-102048571D01*
X117331430Y-103548571D02*
X117331430Y-102048571D01*
X112117143Y-97897143D02*
X113260000Y-97897143D01*
X112688571Y-98468571D02*
X112688571Y-97325714D01*
X114260000Y-96968571D02*
X114545714Y-96968571D01*
X114688572Y-97040000D01*
X114831429Y-97182857D01*
X114902857Y-97468571D01*
X114902857Y-97968571D01*
X114831429Y-98254286D01*
X114688572Y-98397143D01*
X114545714Y-98468571D01*
X114260000Y-98468571D01*
X114117143Y-98397143D01*
X113974286Y-98254286D01*
X113902857Y-97968571D01*
X113902857Y-97468571D01*
X113974286Y-97182857D01*
X114117143Y-97040000D01*
X114260000Y-96968571D01*
X115545715Y-96968571D02*
X115545715Y-98182857D01*
X115617143Y-98325714D01*
X115688572Y-98397143D01*
X115831429Y-98468571D01*
X116117143Y-98468571D01*
X116260001Y-98397143D01*
X116331429Y-98325714D01*
X116402858Y-98182857D01*
X116402858Y-96968571D01*
X116902858Y-96968571D02*
X117760001Y-96968571D01*
X117331430Y-98468571D02*
X117331430Y-96968571D01*
X112117143Y-92817143D02*
X113260000Y-92817143D01*
X112688571Y-93388571D02*
X112688571Y-92245714D01*
X113974286Y-93388571D02*
X113974286Y-91888571D01*
X114688572Y-93388571D02*
X114688572Y-91888571D01*
X115545715Y-93388571D01*
X115545715Y-91888571D01*
X112117143Y-87737143D02*
X113260000Y-87737143D01*
X113974286Y-88308571D02*
X113974286Y-86808571D01*
X114688572Y-88308571D02*
X114688572Y-86808571D01*
X115545715Y-88308571D01*
X115545715Y-86808571D01*
X112117143Y-52177143D02*
X113260000Y-52177143D01*
X112688571Y-52748571D02*
X112688571Y-51605714D01*
X113902857Y-51391429D02*
X113974286Y-51320000D01*
X114117143Y-51248571D01*
X114474286Y-51248571D01*
X114617143Y-51320000D01*
X114688572Y-51391429D01*
X114760000Y-51534286D01*
X114760000Y-51677143D01*
X114688572Y-51891429D01*
X113831429Y-52748571D01*
X114760000Y-52748571D01*
X116045714Y-51748571D02*
X116045714Y-52748571D01*
X115688571Y-51177143D02*
X115331428Y-52248571D01*
X116260000Y-52248571D01*
X116617142Y-51248571D02*
X117117142Y-52748571D01*
X117617142Y-51248571D01*
X112902857Y-46240000D02*
X112760000Y-46168571D01*
X112545714Y-46168571D01*
X112331429Y-46240000D01*
X112188571Y-46382857D01*
X112117143Y-46525714D01*
X112045714Y-46811429D01*
X112045714Y-47025714D01*
X112117143Y-47311429D01*
X112188571Y-47454286D01*
X112331429Y-47597143D01*
X112545714Y-47668571D01*
X112688571Y-47668571D01*
X112902857Y-47597143D01*
X112974286Y-47525714D01*
X112974286Y-47025714D01*
X112688571Y-47025714D01*
X113617143Y-47668571D02*
X113617143Y-46168571D01*
X114474286Y-47668571D01*
X114474286Y-46168571D01*
X115188572Y-47668571D02*
X115188572Y-46168571D01*
X115545715Y-46168571D01*
X115760000Y-46240000D01*
X115902858Y-46382857D01*
X115974286Y-46525714D01*
X116045715Y-46811429D01*
X116045715Y-47025714D01*
X115974286Y-47311429D01*
X115902858Y-47454286D01*
X115760000Y-47597143D01*
X115545715Y-47668571D01*
X115188572Y-47668571D01*
X112974286Y-42588571D02*
X112474286Y-41874286D01*
X112117143Y-42588571D02*
X112117143Y-41088571D01*
X112688571Y-41088571D01*
X112831429Y-41160000D01*
X112902857Y-41231429D01*
X112974286Y-41374286D01*
X112974286Y-41588571D01*
X112902857Y-41731429D01*
X112831429Y-41802857D01*
X112688571Y-41874286D01*
X112117143Y-41874286D01*
X113474286Y-42588571D02*
X114260000Y-41588571D01*
X113474286Y-41588571D02*
X114260000Y-42588571D01*
X111902857Y-36008571D02*
X112760000Y-36008571D01*
X112331429Y-37508571D02*
X112331429Y-36008571D01*
X113117143Y-37508571D02*
X113902857Y-36508571D01*
X113117143Y-36508571D02*
X113902857Y-37508571D01*
D12*
X115547619Y-74095239D02*
X115500000Y-74047620D01*
X115452381Y-73952382D01*
X115452381Y-73714286D01*
X115500000Y-73619048D01*
X115547619Y-73571429D01*
X115642857Y-73523810D01*
X115738095Y-73523810D01*
X115880952Y-73571429D01*
X116452381Y-74142858D01*
X116452381Y-73523810D01*
X115785714Y-72666667D02*
X116452381Y-72666667D01*
X115404762Y-72904763D02*
X116119048Y-73142858D01*
X116119048Y-72523810D01*
X115452381Y-72285715D02*
X116452381Y-71952382D01*
X115452381Y-71619048D01*
X116785714Y-71047620D02*
X115357143Y-71047620D01*
X115500000Y-69809524D02*
X115452381Y-69904762D01*
X115452381Y-70047619D01*
X115500000Y-70190477D01*
X115595238Y-70285715D01*
X115690476Y-70333334D01*
X115880952Y-70380953D01*
X116023810Y-70380953D01*
X116214286Y-70333334D01*
X116309524Y-70285715D01*
X116404762Y-70190477D01*
X116452381Y-70047619D01*
X116452381Y-69952381D01*
X116404762Y-69809524D01*
X116357143Y-69761905D01*
X116023810Y-69761905D01*
X116023810Y-69952381D01*
X116452381Y-69333334D02*
X115452381Y-69333334D01*
X116452381Y-68761905D01*
X115452381Y-68761905D01*
X116452381Y-68285715D02*
X115452381Y-68285715D01*
X115452381Y-68047620D01*
X115500000Y-67904762D01*
X115595238Y-67809524D01*
X115690476Y-67761905D01*
X115880952Y-67714286D01*
X116023810Y-67714286D01*
X116214286Y-67761905D01*
X116309524Y-67809524D01*
X116404762Y-67904762D01*
X116452381Y-68047620D01*
X116452381Y-68285715D01*
X116785714Y-67047620D02*
X115357143Y-67047620D01*
X116452381Y-65761905D02*
X115976190Y-66095239D01*
X116452381Y-66333334D02*
X115452381Y-66333334D01*
X115452381Y-65952381D01*
X115500000Y-65857143D01*
X115547619Y-65809524D01*
X115642857Y-65761905D01*
X115785714Y-65761905D01*
X115880952Y-65809524D01*
X115928571Y-65857143D01*
X115976190Y-65952381D01*
X115976190Y-66333334D01*
X116452381Y-65428572D02*
X115785714Y-64904762D01*
X115785714Y-65428572D02*
X116452381Y-64904762D01*
X116785714Y-64285715D02*
X115357143Y-64285715D01*
X115452381Y-63714286D02*
X115452381Y-63142857D01*
X116452381Y-63428572D02*
X115452381Y-63428572D01*
X116452381Y-62904762D02*
X115785714Y-62380952D01*
X115785714Y-62904762D02*
X116452381Y-62380952D01*
X115928571Y-61238095D02*
X115928571Y-60476190D01*
X116214286Y-60476190D02*
X116214286Y-61238095D01*
X115785714Y-60000000D02*
X116071429Y-59238095D01*
X116357143Y-60000000D01*
D13*
X43761903Y-117809524D02*
X44047618Y-117904762D01*
X44523808Y-117904762D01*
X44714284Y-117809524D01*
X44809522Y-117714286D01*
X44904761Y-117523810D01*
X44904761Y-117333333D01*
X44809522Y-117142857D01*
X44714284Y-117047619D01*
X44523808Y-116952381D01*
X44142856Y-116857143D01*
X43952380Y-116761905D01*
X43857141Y-116666667D01*
X43761903Y-116476190D01*
X43761903Y-116285714D01*
X43857141Y-116095238D01*
X43952380Y-116000000D01*
X44142856Y-115904762D01*
X44619046Y-115904762D01*
X44904761Y-116000000D01*
X45476189Y-116571429D02*
X46238094Y-116571429D01*
X45761903Y-115904762D02*
X45761903Y-117619048D01*
X45857142Y-117809524D01*
X46047618Y-117904762D01*
X46238094Y-117904762D01*
X47666665Y-117809524D02*
X47476189Y-117904762D01*
X47095237Y-117904762D01*
X46904760Y-117809524D01*
X46809522Y-117619048D01*
X46809522Y-116857143D01*
X46904760Y-116666667D01*
X47095237Y-116571429D01*
X47476189Y-116571429D01*
X47666665Y-116666667D01*
X47761903Y-116857143D01*
X47761903Y-117047619D01*
X46809522Y-117238095D01*
X49476189Y-116571429D02*
X49476189Y-117904762D01*
X48619046Y-116571429D02*
X48619046Y-117619048D01*
X48714285Y-117809524D01*
X48904761Y-117904762D01*
X49190475Y-117904762D01*
X49380951Y-117809524D01*
X49476189Y-117714286D01*
X51190475Y-117809524D02*
X50999999Y-117904762D01*
X50619047Y-117904762D01*
X50428570Y-117809524D01*
X50333332Y-117619048D01*
X50333332Y-116857143D01*
X50428570Y-116666667D01*
X50619047Y-116571429D01*
X50999999Y-116571429D01*
X51190475Y-116666667D01*
X51285713Y-116857143D01*
X51285713Y-117047619D01*
X50333332Y-117238095D01*
X52142856Y-117904762D02*
X52142856Y-116571429D01*
X52142856Y-116952381D02*
X52238095Y-116761905D01*
X52333333Y-116666667D01*
X52523809Y-116571429D01*
X52714285Y-116571429D01*
X54238094Y-116571429D02*
X54238094Y-117904762D01*
X53380951Y-116571429D02*
X53380951Y-117619048D01*
X53476190Y-117809524D01*
X53666666Y-117904762D01*
X53952380Y-117904762D01*
X54142856Y-117809524D01*
X54238094Y-117714286D01*
X55190475Y-116571429D02*
X55190475Y-117904762D01*
X55190475Y-116761905D02*
X55285714Y-116666667D01*
X55476190Y-116571429D01*
X55761904Y-116571429D01*
X55952380Y-116666667D01*
X56047618Y-116857143D01*
X56047618Y-117904762D01*
X57857142Y-116571429D02*
X57857142Y-118190476D01*
X57761904Y-118380952D01*
X57666666Y-118476190D01*
X57476190Y-118571429D01*
X57190476Y-118571429D01*
X56999999Y-118476190D01*
X57857142Y-117809524D02*
X57666666Y-117904762D01*
X57285714Y-117904762D01*
X57095238Y-117809524D01*
X56999999Y-117714286D01*
X56904761Y-117523810D01*
X56904761Y-116952381D01*
X56999999Y-116761905D01*
X57095238Y-116666667D01*
X57285714Y-116571429D01*
X57666666Y-116571429D01*
X57857142Y-116666667D01*
X60047619Y-116571429D02*
X60809524Y-116571429D01*
X60333333Y-117904762D02*
X60333333Y-116190476D01*
X60428572Y-116000000D01*
X60619048Y-115904762D01*
X60809524Y-115904762D01*
X62333333Y-116571429D02*
X62333333Y-117904762D01*
X61476190Y-116571429D02*
X61476190Y-117619048D01*
X61571429Y-117809524D01*
X61761905Y-117904762D01*
X62047619Y-117904762D01*
X62238095Y-117809524D01*
X62333333Y-117714286D01*
X61571429Y-115904762D02*
X61666667Y-116000000D01*
X61571429Y-116095238D01*
X61476190Y-116000000D01*
X61571429Y-115904762D01*
X61571429Y-116095238D01*
X62333333Y-115904762D02*
X62428571Y-116000000D01*
X62333333Y-116095238D01*
X62238095Y-116000000D01*
X62333333Y-115904762D01*
X62333333Y-116095238D01*
X63285714Y-117904762D02*
X63285714Y-116571429D01*
X63285714Y-116952381D02*
X63380953Y-116761905D01*
X63476191Y-116666667D01*
X63666667Y-116571429D01*
X63857143Y-116571429D01*
X67000000Y-117904762D02*
X66047619Y-117904762D01*
X66047619Y-115904762D01*
X67571429Y-117333333D02*
X68523810Y-117333333D01*
X67380953Y-117904762D02*
X68047620Y-115904762D01*
X68714287Y-117904762D01*
X69190477Y-115904762D02*
X69666668Y-117904762D01*
X70047620Y-116476190D01*
X70428573Y-117904762D01*
X70904763Y-115904762D01*
X72047620Y-115904762D02*
X72428572Y-115904762D01*
X72619048Y-116000000D01*
X72809525Y-116190476D01*
X72904763Y-116571429D01*
X72904763Y-117238095D01*
X72809525Y-117619048D01*
X72619048Y-117809524D01*
X72428572Y-117904762D01*
X72047620Y-117904762D01*
X71857144Y-117809524D01*
X71666667Y-117619048D01*
X71571429Y-117238095D01*
X71571429Y-116571429D01*
X71666667Y-116190476D01*
X71857144Y-116000000D01*
X72047620Y-115904762D01*
X75952382Y-116857143D02*
X75285715Y-116857143D01*
X75285715Y-117904762D02*
X75285715Y-115904762D01*
X76238096Y-115904762D01*
X77285716Y-117904762D02*
X77095240Y-117809524D01*
X77000001Y-117619048D01*
X77000001Y-115904762D01*
X78047620Y-117904762D02*
X78047620Y-116571429D01*
X78047620Y-115904762D02*
X77952382Y-116000000D01*
X78047620Y-116095238D01*
X78142859Y-116000000D01*
X78047620Y-115904762D01*
X78047620Y-116095238D01*
X79000001Y-116571429D02*
X79000001Y-118571429D01*
X79000001Y-116666667D02*
X79190478Y-116571429D01*
X79571430Y-116571429D01*
X79761906Y-116666667D01*
X79857144Y-116761905D01*
X79952382Y-116952381D01*
X79952382Y-117523810D01*
X79857144Y-117714286D01*
X79761906Y-117809524D01*
X79571430Y-117904762D01*
X79190478Y-117904762D01*
X79000001Y-117809524D01*
X81666668Y-117904762D02*
X81666668Y-115904762D01*
X81666668Y-117809524D02*
X81476192Y-117904762D01*
X81095240Y-117904762D01*
X80904764Y-117809524D01*
X80809525Y-117714286D01*
X80714287Y-117523810D01*
X80714287Y-116952381D01*
X80809525Y-116761905D01*
X80904764Y-116666667D01*
X81095240Y-116571429D01*
X81476192Y-116571429D01*
X81666668Y-116666667D01*
X82904764Y-117904762D02*
X82714288Y-117809524D01*
X82619049Y-117714286D01*
X82523811Y-117523810D01*
X82523811Y-116952381D01*
X82619049Y-116761905D01*
X82714288Y-116666667D01*
X82904764Y-116571429D01*
X83190478Y-116571429D01*
X83380954Y-116666667D01*
X83476192Y-116761905D01*
X83571430Y-116952381D01*
X83571430Y-117523810D01*
X83476192Y-117714286D01*
X83380954Y-117809524D01*
X83190478Y-117904762D01*
X82904764Y-117904762D01*
X84142859Y-116571429D02*
X84904764Y-116571429D01*
X84428573Y-115904762D02*
X84428573Y-117619048D01*
X84523812Y-117809524D01*
X84714288Y-117904762D01*
X84904764Y-117904762D01*
X85571430Y-117142857D02*
X87095240Y-117142857D01*
X88047620Y-117904762D02*
X88047620Y-115904762D01*
X88714287Y-117333333D01*
X89380954Y-115904762D01*
X89380954Y-117904762D01*
X91190477Y-117904762D02*
X91190477Y-116857143D01*
X91095239Y-116666667D01*
X90904763Y-116571429D01*
X90523811Y-116571429D01*
X90333334Y-116666667D01*
X91190477Y-117809524D02*
X91000001Y-117904762D01*
X90523811Y-117904762D01*
X90333334Y-117809524D01*
X90238096Y-117619048D01*
X90238096Y-117428571D01*
X90333334Y-117238095D01*
X90523811Y-117142857D01*
X91000001Y-117142857D01*
X91190477Y-117047619D01*
X91857144Y-116571429D02*
X92619049Y-116571429D01*
X92142858Y-115904762D02*
X92142858Y-117619048D01*
X92238097Y-117809524D01*
X92428573Y-117904762D01*
X92619049Y-117904762D01*
X93285715Y-117904762D02*
X93285715Y-116571429D01*
X93285715Y-116952381D02*
X93380954Y-116761905D01*
X93476192Y-116666667D01*
X93666668Y-116571429D01*
X93857144Y-116571429D01*
X94523810Y-117904762D02*
X94523810Y-116571429D01*
X94523810Y-115904762D02*
X94428572Y-116000000D01*
X94523810Y-116095238D01*
X94619049Y-116000000D01*
X94523810Y-115904762D01*
X94523810Y-116095238D01*
X95285715Y-117904762D02*
X96333334Y-116571429D01*
X95285715Y-116571429D02*
X96333334Y-117904762D01*
D14*
X77740000Y-43280000D02*
X84740000Y-43280000D01*
X84740000Y-43280000D02*
X84740000Y-45780000D01*
X84740000Y-45780000D02*
X77740000Y-45780000D01*
X77740000Y-45780000D02*
X77740000Y-43280000D01*
X94035000Y-41951000D02*
X94035000Y-46949000D01*
X94175000Y-41959000D02*
X94175000Y-46941000D01*
X94315000Y-41975000D02*
X94315000Y-44355000D01*
X94315000Y-44545000D02*
X94315000Y-46925000D01*
X94455000Y-41999000D02*
X94455000Y-43960000D01*
X94455000Y-44940000D02*
X94455000Y-46901000D01*
X94595000Y-42032000D02*
X94595000Y-43793000D01*
X94595000Y-45107000D02*
X94595000Y-46868000D01*
X94735000Y-42073000D02*
X94735000Y-43686000D01*
X94735000Y-45214000D02*
X94735000Y-46827000D01*
X94875000Y-42123000D02*
X94875000Y-43615000D01*
X94875000Y-45285000D02*
X94875000Y-46777000D01*
X95015000Y-42184000D02*
X95015000Y-43571000D01*
X95015000Y-45329000D02*
X95015000Y-46716000D01*
X95155000Y-42254000D02*
X95155000Y-43552000D01*
X95155000Y-45348000D02*
X95155000Y-46646000D01*
X95295000Y-42336000D02*
X95295000Y-43554000D01*
X95295000Y-45346000D02*
X95295000Y-46564000D01*
X95435000Y-42431000D02*
X95435000Y-43579000D01*
X95435000Y-45321000D02*
X95435000Y-46469000D01*
X95575000Y-42542000D02*
X95575000Y-43627000D01*
X95575000Y-45273000D02*
X95575000Y-46358000D01*
X95715000Y-42670000D02*
X95715000Y-43705000D01*
X95715000Y-45195000D02*
X95715000Y-46230000D01*
X95855000Y-42819000D02*
X95855000Y-43822000D01*
X95855000Y-45078000D02*
X95855000Y-46081000D01*
X95995000Y-42998000D02*
X95995000Y-44010000D01*
X95995000Y-44890000D02*
X95995000Y-45902000D01*
X96135000Y-43217000D02*
X96135000Y-45683000D01*
X96275000Y-43506000D02*
X96275000Y-45394000D01*
X96415000Y-43978000D02*
X96415000Y-44922000D01*
X96110000Y-44450000D02*
G75*
G03X96110000Y-44450000I-900000J0D01*
G01*
X96497500Y-44450000D02*
G75*
G03X96497500Y-44450000I-2537500J0D01*
G01*
X97770000Y-28210000D02*
X97770000Y-35210000D01*
X97770000Y-35210000D02*
X95270000Y-35210000D01*
X95270000Y-35210000D02*
X95270000Y-28210000D01*
X95270000Y-28210000D02*
X97770000Y-28210000D01*
X77740000Y-78840000D02*
X84740000Y-78840000D01*
X84740000Y-78840000D02*
X84740000Y-81340000D01*
X84740000Y-81340000D02*
X77740000Y-81340000D01*
X77740000Y-81340000D02*
X77740000Y-78840000D01*
D10*
X107220000Y-55450000D02*
X107220000Y-33450000D01*
X107220000Y-33450000D02*
X119220000Y-33450000D01*
X119220000Y-33450000D02*
X119220000Y-55450000D01*
X119220000Y-55450000D02*
X107220000Y-55450000D01*
X107220000Y-106250000D02*
X107220000Y-84250000D01*
X107220000Y-84250000D02*
X119220000Y-84250000D01*
X119220000Y-84250000D02*
X119220000Y-106250000D01*
X119220000Y-106250000D02*
X107220000Y-106250000D01*
D14*
X45190000Y-34370000D02*
X45190000Y-105490000D01*
X44640000Y-34910000D02*
X44640000Y-104930000D01*
X36090000Y-34370000D02*
X36090000Y-105490000D01*
X36640000Y-34910000D02*
X36640000Y-67680000D01*
X36640000Y-72180000D02*
X36640000Y-104930000D01*
X36640000Y-67680000D02*
X36090000Y-67680000D01*
X36640000Y-72180000D02*
X36090000Y-72180000D01*
X45190000Y-34370000D02*
X36090000Y-34370000D01*
X44640000Y-34910000D02*
X36640000Y-34910000D01*
X45190000Y-105490000D02*
X36090000Y-105490000D01*
X44640000Y-104930000D02*
X36640000Y-104930000D01*
X45190000Y-34370000D02*
X44640000Y-34910000D01*
X45190000Y-105490000D02*
X44640000Y-104930000D01*
X36090000Y-34370000D02*
X36640000Y-34910000D01*
X36090000Y-105490000D02*
X36640000Y-104930000D01*
X31220000Y-54690000D02*
X31220000Y-87710000D01*
X30670000Y-55230000D02*
X30670000Y-87150000D01*
X22120000Y-54690000D02*
X22120000Y-87710000D01*
X22670000Y-55230000D02*
X22670000Y-68950000D01*
X22670000Y-73450000D02*
X22670000Y-87150000D01*
X22670000Y-68950000D02*
X22120000Y-68950000D01*
X22670000Y-73450000D02*
X22120000Y-73450000D01*
X31220000Y-54690000D02*
X22120000Y-54690000D01*
X30670000Y-55230000D02*
X22670000Y-55230000D01*
X31220000Y-87710000D02*
X22120000Y-87710000D01*
X30670000Y-87150000D02*
X22670000Y-87150000D01*
X31220000Y-54690000D02*
X30670000Y-55230000D01*
X31220000Y-87710000D02*
X30670000Y-87150000D01*
X22120000Y-54690000D02*
X22670000Y-55230000D01*
X22120000Y-87710000D02*
X22670000Y-87150000D01*
X101940000Y-107680000D02*
G75*
G03X103140000Y-108880000I2200000J1000000D01*
G01*
X101940000Y-105680001D02*
G75*
G02X103140000Y-104480000I2200000J-999999D01*
G01*
X105136990Y-108867695D02*
G75*
G03X105840000Y-108380000I-996990J2187695D01*
G01*
X105136990Y-104492305D02*
G75*
G02X105840000Y-104980000I-996990J-2187695D01*
G01*
X105840000Y-108380000D02*
X105840000Y-104980000D01*
X101092000Y-96774000D02*
X102235000Y-96774000D01*
X101092000Y-93726000D02*
X102235000Y-93726000D01*
X102235000Y-89916000D02*
X105918000Y-89916000D01*
X105918000Y-89916000D02*
X105918000Y-100584000D01*
X105918000Y-100584000D02*
X102235000Y-100584000D01*
X101092000Y-89916000D02*
X102235000Y-89916000D01*
X102235000Y-89916000D02*
X102235000Y-100584000D01*
X102235000Y-100584000D02*
X101092000Y-100584000D01*
X101092000Y-95250000D02*
X101092000Y-100584000D01*
X101092000Y-95250000D02*
X101092000Y-89916000D01*
X96520000Y-111760000D02*
X96520000Y-106680000D01*
X96520000Y-106680000D02*
X99060000Y-106680000D01*
X99060000Y-106680000D02*
X99060000Y-111760000D01*
X99060000Y-111760000D02*
X96520000Y-111760000D01*
X97790000Y-111760000D02*
X97790000Y-113030000D01*
X97790000Y-106680000D02*
X97790000Y-105410000D01*
X91440000Y-106680000D02*
X91440000Y-101600000D01*
X91440000Y-101600000D02*
X93980000Y-101600000D01*
X93980000Y-101600000D02*
X93980000Y-106680000D01*
X93980000Y-106680000D02*
X91440000Y-106680000D01*
X92710000Y-106680000D02*
X92710000Y-107950000D01*
X92710000Y-101600000D02*
X92710000Y-100330000D01*
X102870000Y-73660000D02*
X102870000Y-68580000D01*
X102870000Y-68580000D02*
X105410000Y-68580000D01*
X105410000Y-68580000D02*
X105410000Y-73660000D01*
X105410000Y-73660000D02*
X102870000Y-73660000D01*
X104140000Y-73660000D02*
X104140000Y-74930000D01*
X104140000Y-68580000D02*
X104140000Y-67310000D01*
X95250000Y-71280000D02*
X100330000Y-71280000D01*
X100330000Y-71280000D02*
X100330000Y-56040000D01*
X100330000Y-56040000D02*
X97790000Y-56040000D01*
X97790000Y-56040000D02*
X95250000Y-56040000D01*
X95250000Y-56040000D02*
X95250000Y-71280000D01*
X97790000Y-54930000D02*
X97790000Y-56040000D01*
X97790000Y-72390000D02*
X97790000Y-71280000D01*
X102235000Y-86360000D02*
X102235000Y-87376000D01*
X102235000Y-81280000D02*
X102235000Y-83820000D01*
X102235000Y-77724000D02*
X102235000Y-78740000D01*
X98298000Y-86106000D02*
X99568000Y-86106000D01*
X99047300Y-85318600D02*
X98793300Y-85356700D01*
X98793300Y-85356700D02*
X98513900Y-85534500D01*
X98513900Y-85534500D02*
X98298000Y-85852000D01*
X98298000Y-85852000D02*
X98285300Y-86296500D01*
X98285300Y-86296500D02*
X98488500Y-86652100D01*
X98488500Y-86652100D02*
X98780600Y-86829900D01*
X98780600Y-86829900D02*
X99098100Y-86880700D01*
X99098100Y-86880700D02*
X99504500Y-86779100D01*
X99504500Y-86779100D02*
X99758500Y-86436200D01*
X99758500Y-86436200D02*
X99847400Y-86258400D01*
X99060000Y-87376000D02*
X97790000Y-87376000D01*
X97790000Y-87376000D02*
X97790000Y-77724000D01*
X97790000Y-77724000D02*
X102870000Y-77724000D01*
X102870000Y-87376000D02*
X100330000Y-87376000D01*
X100330000Y-87376000D02*
X99060000Y-87376000D01*
D10*
X97300000Y-51520000D02*
X97300000Y-39920000D01*
X97300000Y-39920000D02*
X105900000Y-39920000D01*
X105900000Y-39920000D02*
X105900000Y-51520000D01*
X105900000Y-51520000D02*
X97300000Y-51520000D01*
D14*
X101092000Y-59944000D02*
X102235000Y-59944000D01*
X101092000Y-56896000D02*
X102235000Y-56896000D01*
X102235000Y-53086000D02*
X105918000Y-53086000D01*
X105918000Y-53086000D02*
X105918000Y-63754000D01*
X105918000Y-63754000D02*
X102235000Y-63754000D01*
X101092000Y-53086000D02*
X102235000Y-53086000D01*
X102235000Y-53086000D02*
X102235000Y-63754000D01*
X102235000Y-63754000D02*
X101092000Y-63754000D01*
X101092000Y-58420000D02*
X101092000Y-63754000D01*
X101092000Y-58420000D02*
X101092000Y-53086000D01*
X73795000Y-46045000D02*
X73795000Y-47315000D01*
X88765000Y-46045000D02*
X88765000Y-47315000D01*
X88765000Y-78575000D02*
X88765000Y-77305000D01*
X73795000Y-78575000D02*
X73795000Y-77305000D01*
X73795000Y-46045000D02*
X88765000Y-46045000D01*
X73795000Y-78575000D02*
X88765000Y-78575000D01*
X73795000Y-47315000D02*
X72510000Y-47315000D01*
X55745000Y-78575000D02*
X55745000Y-77305000D01*
X48395000Y-78575000D02*
X48395000Y-77305000D01*
X48395000Y-53665000D02*
X48395000Y-54935000D01*
X55745000Y-53665000D02*
X55745000Y-54935000D01*
X55745000Y-78575000D02*
X48395000Y-78575000D01*
X55745000Y-53665000D02*
X48395000Y-53665000D01*
X55745000Y-77305000D02*
X57030000Y-77305000D01*
X55745000Y-106515000D02*
X55745000Y-105245000D01*
X48395000Y-106515000D02*
X48395000Y-105245000D01*
X48395000Y-81605000D02*
X48395000Y-82875000D01*
X55745000Y-81605000D02*
X55745000Y-82875000D01*
X55745000Y-106515000D02*
X48395000Y-106515000D01*
X55745000Y-81605000D02*
X48395000Y-81605000D01*
X55745000Y-105245000D02*
X57030000Y-105245000D01*
D11*
X58390000Y-27750000D02*
X58390000Y-35750000D01*
X58390000Y-35750000D02*
X50890000Y-35750000D01*
X50890000Y-35750000D02*
X50890000Y-27750000D01*
X50890000Y-27750000D02*
X58390000Y-27750000D01*
X50890000Y-22750000D02*
X93890000Y-22750000D01*
X93890000Y-22750000D02*
X93890000Y-40750000D01*
X93890000Y-40750000D02*
X50890000Y-40750000D01*
X50890000Y-40750000D02*
X50890000Y-22750000D01*
D14*
X68445000Y-78575000D02*
X68445000Y-77305000D01*
X61095000Y-78575000D02*
X61095000Y-77305000D01*
X61095000Y-53665000D02*
X61095000Y-54935000D01*
X68445000Y-53665000D02*
X68445000Y-54935000D01*
X68445000Y-78575000D02*
X61095000Y-78575000D01*
X68445000Y-53665000D02*
X61095000Y-53665000D01*
X68445000Y-77305000D02*
X69730000Y-77305000D01*
X68445000Y-106515000D02*
X68445000Y-105245000D01*
X61095000Y-106515000D02*
X61095000Y-105245000D01*
X61095000Y-81605000D02*
X61095000Y-82875000D01*
X68445000Y-81605000D02*
X68445000Y-82875000D01*
X68445000Y-106515000D02*
X61095000Y-106515000D01*
X68445000Y-81605000D02*
X61095000Y-81605000D01*
X68445000Y-105245000D02*
X69730000Y-105245000D01*
X73795000Y-81605000D02*
X73795000Y-82875000D01*
X88765000Y-81605000D02*
X88765000Y-82875000D01*
X88765000Y-114135000D02*
X88765000Y-112865000D01*
X73795000Y-114135000D02*
X73795000Y-112865000D01*
X73795000Y-81605000D02*
X88765000Y-81605000D01*
X73795000Y-114135000D02*
X88765000Y-114135000D01*
X73795000Y-82875000D02*
X72510000Y-82875000D01*
X91440000Y-91520000D02*
X91440000Y-86440000D01*
X91440000Y-86440000D02*
X93980000Y-86440000D01*
X93980000Y-86440000D02*
X93980000Y-91520000D01*
X93980000Y-91520000D02*
X91440000Y-91520000D01*
X92710000Y-91520000D02*
X92710000Y-92790000D01*
X92710000Y-86440000D02*
X92710000Y-85170000D01*
X91440000Y-55960000D02*
X91440000Y-50880000D01*
X91440000Y-50880000D02*
X93980000Y-50880000D01*
X93980000Y-50880000D02*
X93980000Y-55960000D01*
X93980000Y-55960000D02*
X91440000Y-55960000D01*
X92710000Y-55960000D02*
X92710000Y-57230000D01*
X92710000Y-50880000D02*
X92710000Y-49610000D01*
D10*
X102500000Y-101500000D02*
X102500000Y-100500000D01*
X102500000Y-100500000D02*
X101200000Y-100500000D01*
X101200000Y-100500000D02*
X101200000Y-89900000D01*
X101200000Y-89900000D02*
X102500000Y-89900000D01*
X102500000Y-89900000D02*
X102500000Y-88900000D01*
X102500000Y-88900000D02*
X96000000Y-88900000D01*
X96000000Y-88900000D02*
X96000000Y-101500000D01*
X96000000Y-101500000D02*
X102500000Y-101500000D01*
D14*
X108230000Y-80920000D02*
X111030000Y-80920000D01*
X115030000Y-80920000D02*
X117830000Y-80920000D01*
X115030000Y-58420000D02*
X117830000Y-58420000D01*
X117830000Y-58420000D02*
X117830000Y-80920000D01*
X108230000Y-58420000D02*
X108230000Y-80920000D01*
X108230000Y-58420000D02*
X111030000Y-58420000D01*
X27286000Y-25000000D02*
G75*
G03X27286000Y-25000000I-2286000J0D01*
G01*
X117286000Y-25000000D02*
G75*
G03X117286000Y-25000000I-2286000J0D01*
G01*
X27286000Y-115000000D02*
G75*
G03X27286000Y-115000000I-2286000J0D01*
G01*
X117286000Y-115000000D02*
G75*
G03X117286000Y-115000000I-2286000J0D01*
G01*
X86193334Y-44887143D02*
X86145715Y-44934762D01*
X86002858Y-44982381D01*
X85907620Y-44982381D01*
X85764762Y-44934762D01*
X85669524Y-44839524D01*
X85621905Y-44744286D01*
X85574286Y-44553810D01*
X85574286Y-44410952D01*
X85621905Y-44220476D01*
X85669524Y-44125238D01*
X85764762Y-44030000D01*
X85907620Y-43982381D01*
X86002858Y-43982381D01*
X86145715Y-44030000D01*
X86193334Y-44077619D01*
X87145715Y-44982381D02*
X86574286Y-44982381D01*
X86860000Y-44982381D02*
X86860000Y-43982381D01*
X86764762Y-44125238D01*
X86669524Y-44220476D01*
X86574286Y-44268095D01*
X95083334Y-40997143D02*
X95035715Y-41044762D01*
X94892858Y-41092381D01*
X94797620Y-41092381D01*
X94654762Y-41044762D01*
X94559524Y-40949524D01*
X94511905Y-40854286D01*
X94464286Y-40663810D01*
X94464286Y-40520952D01*
X94511905Y-40330476D01*
X94559524Y-40235238D01*
X94654762Y-40140000D01*
X94797620Y-40092381D01*
X94892858Y-40092381D01*
X95035715Y-40140000D01*
X95083334Y-40187619D01*
X95464286Y-40187619D02*
X95511905Y-40140000D01*
X95607143Y-40092381D01*
X95845239Y-40092381D01*
X95940477Y-40140000D01*
X95988096Y-40187619D01*
X96035715Y-40282857D01*
X96035715Y-40378095D01*
X95988096Y-40520952D01*
X95416667Y-41092381D01*
X96035715Y-41092381D01*
X99353334Y-32567143D02*
X99305715Y-32614762D01*
X99162858Y-32662381D01*
X99067620Y-32662381D01*
X98924762Y-32614762D01*
X98829524Y-32519524D01*
X98781905Y-32424286D01*
X98734286Y-32233810D01*
X98734286Y-32090952D01*
X98781905Y-31900476D01*
X98829524Y-31805238D01*
X98924762Y-31710000D01*
X99067620Y-31662381D01*
X99162858Y-31662381D01*
X99305715Y-31710000D01*
X99353334Y-31757619D01*
X99686667Y-31662381D02*
X100305715Y-31662381D01*
X99972381Y-32043333D01*
X100115239Y-32043333D01*
X100210477Y-32090952D01*
X100258096Y-32138571D01*
X100305715Y-32233810D01*
X100305715Y-32471905D01*
X100258096Y-32567143D01*
X100210477Y-32614762D01*
X100115239Y-32662381D01*
X99829524Y-32662381D01*
X99734286Y-32614762D01*
X99686667Y-32567143D01*
X86193334Y-80447143D02*
X86145715Y-80494762D01*
X86002858Y-80542381D01*
X85907620Y-80542381D01*
X85764762Y-80494762D01*
X85669524Y-80399524D01*
X85621905Y-80304286D01*
X85574286Y-80113810D01*
X85574286Y-79970952D01*
X85621905Y-79780476D01*
X85669524Y-79685238D01*
X85764762Y-79590000D01*
X85907620Y-79542381D01*
X86002858Y-79542381D01*
X86145715Y-79590000D01*
X86193334Y-79637619D01*
X87050477Y-79875714D02*
X87050477Y-80542381D01*
X86812381Y-79494762D02*
X86574286Y-80209048D01*
X87193334Y-80209048D01*
X112291905Y-32202381D02*
X112291905Y-31202381D01*
X112672858Y-31202381D01*
X112768096Y-31250000D01*
X112815715Y-31297619D01*
X112863334Y-31392857D01*
X112863334Y-31535714D01*
X112815715Y-31630952D01*
X112768096Y-31678571D01*
X112672858Y-31726190D01*
X112291905Y-31726190D01*
X113815715Y-32202381D02*
X113244286Y-32202381D01*
X113530000Y-32202381D02*
X113530000Y-31202381D01*
X113434762Y-31345238D01*
X113339524Y-31440476D01*
X113244286Y-31488095D01*
X109261905Y-83452381D02*
X109261905Y-82452381D01*
X109642858Y-82452381D01*
X109738096Y-82500000D01*
X109785715Y-82547619D01*
X109833334Y-82642857D01*
X109833334Y-82785714D01*
X109785715Y-82880952D01*
X109738096Y-82928571D01*
X109642858Y-82976190D01*
X109261905Y-82976190D01*
X110214286Y-82547619D02*
X110261905Y-82500000D01*
X110357143Y-82452381D01*
X110595239Y-82452381D01*
X110690477Y-82500000D01*
X110738096Y-82547619D01*
X110785715Y-82642857D01*
X110785715Y-82738095D01*
X110738096Y-82880952D01*
X110166667Y-83452381D01*
X110785715Y-83452381D01*
X39261905Y-33452381D02*
X39261905Y-32452381D01*
X39642858Y-32452381D01*
X39738096Y-32500000D01*
X39785715Y-32547619D01*
X39833334Y-32642857D01*
X39833334Y-32785714D01*
X39785715Y-32880952D01*
X39738096Y-32928571D01*
X39642858Y-32976190D01*
X39261905Y-32976190D01*
X40166667Y-32452381D02*
X40785715Y-32452381D01*
X40452381Y-32833333D01*
X40595239Y-32833333D01*
X40690477Y-32880952D01*
X40738096Y-32928571D01*
X40785715Y-33023810D01*
X40785715Y-33261905D01*
X40738096Y-33357143D01*
X40690477Y-33404762D01*
X40595239Y-33452381D01*
X40309524Y-33452381D01*
X40214286Y-33404762D01*
X40166667Y-33357143D01*
X25261905Y-53452381D02*
X25261905Y-52452381D01*
X25642858Y-52452381D01*
X25738096Y-52500000D01*
X25785715Y-52547619D01*
X25833334Y-52642857D01*
X25833334Y-52785714D01*
X25785715Y-52880952D01*
X25738096Y-52928571D01*
X25642858Y-52976190D01*
X25261905Y-52976190D01*
X26690477Y-52785714D02*
X26690477Y-53452381D01*
X26452381Y-52404762D02*
X26214286Y-53119048D01*
X26833334Y-53119048D01*
X107854762Y-108497619D02*
X107759524Y-108450000D01*
X107664286Y-108354762D01*
X107521429Y-108211905D01*
X107426190Y-108164286D01*
X107330952Y-108164286D01*
X107378571Y-108402381D02*
X107283333Y-108354762D01*
X107188095Y-108259524D01*
X107140476Y-108069048D01*
X107140476Y-107735714D01*
X107188095Y-107545238D01*
X107283333Y-107450000D01*
X107378571Y-107402381D01*
X107569048Y-107402381D01*
X107664286Y-107450000D01*
X107759524Y-107545238D01*
X107807143Y-107735714D01*
X107807143Y-108069048D01*
X107759524Y-108259524D01*
X107664286Y-108354762D01*
X107569048Y-108402381D01*
X107378571Y-108402381D01*
X108759524Y-108402381D02*
X108188095Y-108402381D01*
X108473809Y-108402381D02*
X108473809Y-107402381D01*
X108378571Y-107545238D01*
X108283333Y-107640476D01*
X108188095Y-107688095D01*
X105314762Y-102147619D02*
X105219524Y-102100000D01*
X105124286Y-102004762D01*
X104981429Y-101861905D01*
X104886190Y-101814286D01*
X104790952Y-101814286D01*
X104838571Y-102052381D02*
X104743333Y-102004762D01*
X104648095Y-101909524D01*
X104600476Y-101719048D01*
X104600476Y-101385714D01*
X104648095Y-101195238D01*
X104743333Y-101100000D01*
X104838571Y-101052381D01*
X105029048Y-101052381D01*
X105124286Y-101100000D01*
X105219524Y-101195238D01*
X105267143Y-101385714D01*
X105267143Y-101719048D01*
X105219524Y-101909524D01*
X105124286Y-102004762D01*
X105029048Y-102052381D01*
X104838571Y-102052381D01*
X105648095Y-101147619D02*
X105695714Y-101100000D01*
X105790952Y-101052381D01*
X106029048Y-101052381D01*
X106124286Y-101100000D01*
X106171905Y-101147619D01*
X106219524Y-101242857D01*
X106219524Y-101338095D01*
X106171905Y-101480952D01*
X105600476Y-102052381D01*
X106219524Y-102052381D01*
X100163334Y-112212381D02*
X99830000Y-111736190D01*
X99591905Y-112212381D02*
X99591905Y-111212381D01*
X99972858Y-111212381D01*
X100068096Y-111260000D01*
X100115715Y-111307619D01*
X100163334Y-111402857D01*
X100163334Y-111545714D01*
X100115715Y-111640952D01*
X100068096Y-111688571D01*
X99972858Y-111736190D01*
X99591905Y-111736190D01*
X101115715Y-112212381D02*
X100544286Y-112212381D01*
X100830000Y-112212381D02*
X100830000Y-111212381D01*
X100734762Y-111355238D01*
X100639524Y-111450476D01*
X100544286Y-111498095D01*
X95083334Y-104592381D02*
X94750000Y-104116190D01*
X94511905Y-104592381D02*
X94511905Y-103592381D01*
X94892858Y-103592381D01*
X94988096Y-103640000D01*
X95035715Y-103687619D01*
X95083334Y-103782857D01*
X95083334Y-103925714D01*
X95035715Y-104020952D01*
X94988096Y-104068571D01*
X94892858Y-104116190D01*
X94511905Y-104116190D01*
X95464286Y-103687619D02*
X95511905Y-103640000D01*
X95607143Y-103592381D01*
X95845239Y-103592381D01*
X95940477Y-103640000D01*
X95988096Y-103687619D01*
X96035715Y-103782857D01*
X96035715Y-103878095D01*
X95988096Y-104020952D01*
X95416667Y-104592381D01*
X96035715Y-104592381D01*
X106513334Y-74112381D02*
X106180000Y-73636190D01*
X105941905Y-74112381D02*
X105941905Y-73112381D01*
X106322858Y-73112381D01*
X106418096Y-73160000D01*
X106465715Y-73207619D01*
X106513334Y-73302857D01*
X106513334Y-73445714D01*
X106465715Y-73540952D01*
X106418096Y-73588571D01*
X106322858Y-73636190D01*
X105941905Y-73636190D01*
X106846667Y-73112381D02*
X107465715Y-73112381D01*
X107132381Y-73493333D01*
X107275239Y-73493333D01*
X107370477Y-73540952D01*
X107418096Y-73588571D01*
X107465715Y-73683810D01*
X107465715Y-73921905D01*
X107418096Y-74017143D01*
X107370477Y-74064762D01*
X107275239Y-74112381D01*
X106989524Y-74112381D01*
X106894286Y-74064762D01*
X106846667Y-74017143D01*
X93813334Y-70302381D02*
X93480000Y-69826190D01*
X93241905Y-70302381D02*
X93241905Y-69302381D01*
X93622858Y-69302381D01*
X93718096Y-69350000D01*
X93765715Y-69397619D01*
X93813334Y-69492857D01*
X93813334Y-69635714D01*
X93765715Y-69730952D01*
X93718096Y-69778571D01*
X93622858Y-69826190D01*
X93241905Y-69826190D01*
X94670477Y-69635714D02*
X94670477Y-70302381D01*
X94432381Y-69254762D02*
X94194286Y-69969048D01*
X94813334Y-69969048D01*
X103544762Y-85542381D02*
X103211428Y-85066190D01*
X102973333Y-85542381D02*
X102973333Y-84542381D01*
X103354286Y-84542381D01*
X103449524Y-84590000D01*
X103497143Y-84637619D01*
X103544762Y-84732857D01*
X103544762Y-84875714D01*
X103497143Y-84970952D01*
X103449524Y-85018571D01*
X103354286Y-85066190D01*
X102973333Y-85066190D01*
X103830476Y-84542381D02*
X104163809Y-85542381D01*
X104497143Y-84542381D01*
X105354286Y-85542381D02*
X104782857Y-85542381D01*
X105068571Y-85542381D02*
X105068571Y-84542381D01*
X104973333Y-84685238D01*
X104878095Y-84780476D01*
X104782857Y-84828095D01*
X100838095Y-37552381D02*
X100838095Y-38361905D01*
X100885714Y-38457143D01*
X100933333Y-38504762D01*
X101028571Y-38552381D01*
X101219048Y-38552381D01*
X101314286Y-38504762D01*
X101361905Y-38457143D01*
X101409524Y-38361905D01*
X101409524Y-37552381D01*
X102409524Y-38552381D02*
X101838095Y-38552381D01*
X102123809Y-38552381D02*
X102123809Y-37552381D01*
X102028571Y-37695238D01*
X101933333Y-37790476D01*
X101838095Y-37838095D01*
X108238095Y-56452381D02*
X108238095Y-57261905D01*
X108285714Y-57357143D01*
X108333333Y-57404762D01*
X108428571Y-57452381D01*
X108619048Y-57452381D01*
X108714286Y-57404762D01*
X108761905Y-57357143D01*
X108809524Y-57261905D01*
X108809524Y-56452381D01*
X109238095Y-56547619D02*
X109285714Y-56500000D01*
X109380952Y-56452381D01*
X109619048Y-56452381D01*
X109714286Y-56500000D01*
X109761905Y-56547619D01*
X109809524Y-56642857D01*
X109809524Y-56738095D01*
X109761905Y-56880952D01*
X109190476Y-57452381D01*
X109809524Y-57452381D01*
X90678095Y-75732381D02*
X90678095Y-76541905D01*
X90725714Y-76637143D01*
X90773333Y-76684762D01*
X90868571Y-76732381D01*
X91059048Y-76732381D01*
X91154286Y-76684762D01*
X91201905Y-76637143D01*
X91249524Y-76541905D01*
X91249524Y-75732381D01*
X91630476Y-75732381D02*
X92249524Y-75732381D01*
X91916190Y-76113333D01*
X92059048Y-76113333D01*
X92154286Y-76160952D01*
X92201905Y-76208571D01*
X92249524Y-76303810D01*
X92249524Y-76541905D01*
X92201905Y-76637143D01*
X92154286Y-76684762D01*
X92059048Y-76732381D01*
X91773333Y-76732381D01*
X91678095Y-76684762D01*
X91630476Y-76637143D01*
X51308095Y-51602381D02*
X51308095Y-52411905D01*
X51355714Y-52507143D01*
X51403333Y-52554762D01*
X51498571Y-52602381D01*
X51689048Y-52602381D01*
X51784286Y-52554762D01*
X51831905Y-52507143D01*
X51879524Y-52411905D01*
X51879524Y-51602381D01*
X52784286Y-51935714D02*
X52784286Y-52602381D01*
X52546190Y-51554762D02*
X52308095Y-52269048D01*
X52927143Y-52269048D01*
X51308095Y-107482381D02*
X51308095Y-108291905D01*
X51355714Y-108387143D01*
X51403333Y-108434762D01*
X51498571Y-108482381D01*
X51689048Y-108482381D01*
X51784286Y-108434762D01*
X51831905Y-108387143D01*
X51879524Y-108291905D01*
X51879524Y-107482381D01*
X52831905Y-107482381D02*
X52355714Y-107482381D01*
X52308095Y-107958571D01*
X52355714Y-107910952D01*
X52450952Y-107863333D01*
X52689048Y-107863333D01*
X52784286Y-107910952D01*
X52831905Y-107958571D01*
X52879524Y-108053810D01*
X52879524Y-108291905D01*
X52831905Y-108387143D01*
X52784286Y-108434762D01*
X52689048Y-108482381D01*
X52450952Y-108482381D01*
X52355714Y-108434762D01*
X52308095Y-108387143D01*
D15*
X95165333Y-37126333D02*
X95165333Y-38565667D01*
X95250000Y-38735000D01*
X95334667Y-38819667D01*
X95504000Y-38904333D01*
X95842667Y-38904333D01*
X96012000Y-38819667D01*
X96096667Y-38735000D01*
X96181333Y-38565667D01*
X96181333Y-37126333D01*
X97790000Y-37126333D02*
X97451334Y-37126333D01*
X97282000Y-37211000D01*
X97197334Y-37295667D01*
X97028000Y-37549667D01*
X96943334Y-37888333D01*
X96943334Y-38565667D01*
X97028000Y-38735000D01*
X97112667Y-38819667D01*
X97282000Y-38904333D01*
X97620667Y-38904333D01*
X97790000Y-38819667D01*
X97874667Y-38735000D01*
X97959334Y-38565667D01*
X97959334Y-38142333D01*
X97874667Y-37973000D01*
X97790000Y-37888333D01*
X97620667Y-37803667D01*
X97282000Y-37803667D01*
X97112667Y-37888333D01*
X97028000Y-37973000D01*
X96943334Y-38142333D01*
X63363999Y-32296333D02*
X64210665Y-32296333D01*
X63194665Y-32804333D02*
X63787332Y-31026333D01*
X64379999Y-32804333D01*
X64972665Y-32804333D02*
X64972665Y-31619000D01*
X64972665Y-31957667D02*
X65057332Y-31788333D01*
X65141999Y-31703667D01*
X65311332Y-31619000D01*
X65480665Y-31619000D01*
X66835332Y-32804333D02*
X66835332Y-31026333D01*
X66835332Y-32719667D02*
X66665999Y-32804333D01*
X66327332Y-32804333D01*
X66157999Y-32719667D01*
X66073332Y-32635000D01*
X65988666Y-32465667D01*
X65988666Y-31957667D01*
X66073332Y-31788333D01*
X66157999Y-31703667D01*
X66327332Y-31619000D01*
X66665999Y-31619000D01*
X66835332Y-31703667D01*
X68443999Y-31619000D02*
X68443999Y-32804333D01*
X67681999Y-31619000D02*
X67681999Y-32550333D01*
X67766666Y-32719667D01*
X67935999Y-32804333D01*
X68189999Y-32804333D01*
X68359333Y-32719667D01*
X68443999Y-32635000D01*
X69290666Y-32804333D02*
X69290666Y-31619000D01*
X69290666Y-31026333D02*
X69206000Y-31111000D01*
X69290666Y-31195667D01*
X69375333Y-31111000D01*
X69290666Y-31026333D01*
X69290666Y-31195667D01*
X70137333Y-31619000D02*
X70137333Y-32804333D01*
X70137333Y-31788333D02*
X70222000Y-31703667D01*
X70391333Y-31619000D01*
X70645333Y-31619000D01*
X70814667Y-31703667D01*
X70899333Y-31873000D01*
X70899333Y-32804333D01*
X72000000Y-32804333D02*
X71830667Y-32719667D01*
X71746000Y-32635000D01*
X71661334Y-32465667D01*
X71661334Y-31957667D01*
X71746000Y-31788333D01*
X71830667Y-31703667D01*
X72000000Y-31619000D01*
X72254000Y-31619000D01*
X72423334Y-31703667D01*
X72508000Y-31788333D01*
X72592667Y-31957667D01*
X72592667Y-32465667D01*
X72508000Y-32635000D01*
X72423334Y-32719667D01*
X72254000Y-32804333D01*
X72000000Y-32804333D01*
X74709334Y-32804333D02*
X74709334Y-31026333D01*
X75725334Y-32804333D01*
X75725334Y-31026333D01*
X77334001Y-32804333D02*
X77334001Y-31873000D01*
X77249335Y-31703667D01*
X77080001Y-31619000D01*
X76741335Y-31619000D01*
X76572001Y-31703667D01*
X77334001Y-32719667D02*
X77164668Y-32804333D01*
X76741335Y-32804333D01*
X76572001Y-32719667D01*
X76487335Y-32550333D01*
X76487335Y-32381000D01*
X76572001Y-32211667D01*
X76741335Y-32127000D01*
X77164668Y-32127000D01*
X77334001Y-32042333D01*
X78180668Y-31619000D02*
X78180668Y-32804333D01*
X78180668Y-31788333D02*
X78265335Y-31703667D01*
X78434668Y-31619000D01*
X78688668Y-31619000D01*
X78858002Y-31703667D01*
X78942668Y-31873000D01*
X78942668Y-32804333D01*
X80043335Y-32804333D02*
X79874002Y-32719667D01*
X79789335Y-32635000D01*
X79704669Y-32465667D01*
X79704669Y-31957667D01*
X79789335Y-31788333D01*
X79874002Y-31703667D01*
X80043335Y-31619000D01*
X80297335Y-31619000D01*
X80466669Y-31703667D01*
X80551335Y-31788333D01*
X80636002Y-31957667D01*
X80636002Y-32465667D01*
X80551335Y-32635000D01*
X80466669Y-32719667D01*
X80297335Y-32804333D01*
X80043335Y-32804333D01*
D14*
X64008095Y-51602381D02*
X64008095Y-52411905D01*
X64055714Y-52507143D01*
X64103333Y-52554762D01*
X64198571Y-52602381D01*
X64389048Y-52602381D01*
X64484286Y-52554762D01*
X64531905Y-52507143D01*
X64579524Y-52411905D01*
X64579524Y-51602381D01*
X64960476Y-51602381D02*
X65627143Y-51602381D01*
X65198571Y-52602381D01*
X64008095Y-107482381D02*
X64008095Y-108291905D01*
X64055714Y-108387143D01*
X64103333Y-108434762D01*
X64198571Y-108482381D01*
X64389048Y-108482381D01*
X64484286Y-108434762D01*
X64531905Y-108387143D01*
X64579524Y-108291905D01*
X64579524Y-107482381D01*
X65198571Y-107910952D02*
X65103333Y-107863333D01*
X65055714Y-107815714D01*
X65008095Y-107720476D01*
X65008095Y-107672857D01*
X65055714Y-107577619D01*
X65103333Y-107530000D01*
X65198571Y-107482381D01*
X65389048Y-107482381D01*
X65484286Y-107530000D01*
X65531905Y-107577619D01*
X65579524Y-107672857D01*
X65579524Y-107720476D01*
X65531905Y-107815714D01*
X65484286Y-107863333D01*
X65389048Y-107910952D01*
X65198571Y-107910952D01*
X65103333Y-107958571D01*
X65055714Y-108006190D01*
X65008095Y-108101429D01*
X65008095Y-108291905D01*
X65055714Y-108387143D01*
X65103333Y-108434762D01*
X65198571Y-108482381D01*
X65389048Y-108482381D01*
X65484286Y-108434762D01*
X65531905Y-108387143D01*
X65579524Y-108291905D01*
X65579524Y-108101429D01*
X65531905Y-108006190D01*
X65484286Y-107958571D01*
X65389048Y-107910952D01*
X90678095Y-111292381D02*
X90678095Y-112101905D01*
X90725714Y-112197143D01*
X90773333Y-112244762D01*
X90868571Y-112292381D01*
X91059048Y-112292381D01*
X91154286Y-112244762D01*
X91201905Y-112197143D01*
X91249524Y-112101905D01*
X91249524Y-111292381D01*
X91773333Y-112292381D02*
X91963809Y-112292381D01*
X92059048Y-112244762D01*
X92106667Y-112197143D01*
X92201905Y-112054286D01*
X92249524Y-111863810D01*
X92249524Y-111482857D01*
X92201905Y-111387619D01*
X92154286Y-111340000D01*
X92059048Y-111292381D01*
X91868571Y-111292381D01*
X91773333Y-111340000D01*
X91725714Y-111387619D01*
X91678095Y-111482857D01*
X91678095Y-111720952D01*
X91725714Y-111816190D01*
X91773333Y-111863810D01*
X91868571Y-111911429D01*
X92059048Y-111911429D01*
X92154286Y-111863810D01*
X92201905Y-111816190D01*
X92249524Y-111720952D01*
X95083334Y-86812381D02*
X94750000Y-86336190D01*
X94511905Y-86812381D02*
X94511905Y-85812381D01*
X94892858Y-85812381D01*
X94988096Y-85860000D01*
X95035715Y-85907619D01*
X95083334Y-86002857D01*
X95083334Y-86145714D01*
X95035715Y-86240952D01*
X94988096Y-86288571D01*
X94892858Y-86336190D01*
X94511905Y-86336190D01*
X95988096Y-85812381D02*
X95511905Y-85812381D01*
X95464286Y-86288571D01*
X95511905Y-86240952D01*
X95607143Y-86193333D01*
X95845239Y-86193333D01*
X95940477Y-86240952D01*
X95988096Y-86288571D01*
X96035715Y-86383810D01*
X96035715Y-86621905D01*
X95988096Y-86717143D01*
X95940477Y-86764762D01*
X95845239Y-86812381D01*
X95607143Y-86812381D01*
X95511905Y-86764762D01*
X95464286Y-86717143D01*
X95083334Y-53872381D02*
X94750000Y-53396190D01*
X94511905Y-53872381D02*
X94511905Y-52872381D01*
X94892858Y-52872381D01*
X94988096Y-52920000D01*
X95035715Y-52967619D01*
X95083334Y-53062857D01*
X95083334Y-53205714D01*
X95035715Y-53300952D01*
X94988096Y-53348571D01*
X94892858Y-53396190D01*
X94511905Y-53396190D01*
X95940477Y-52872381D02*
X95750000Y-52872381D01*
X95654762Y-52920000D01*
X95607143Y-52967619D01*
X95511905Y-53110476D01*
X95464286Y-53300952D01*
X95464286Y-53681905D01*
X95511905Y-53777143D01*
X95559524Y-53824762D01*
X95654762Y-53872381D01*
X95845239Y-53872381D01*
X95940477Y-53824762D01*
X95988096Y-53777143D01*
X96035715Y-53681905D01*
X96035715Y-53443810D01*
X95988096Y-53348571D01*
X95940477Y-53300952D01*
X95845239Y-53253333D01*
X95654762Y-53253333D01*
X95559524Y-53300952D01*
X95511905Y-53348571D01*
X95464286Y-53443810D01*
X106346667Y-69778571D02*
X106013333Y-69778571D01*
X106013333Y-70302381D02*
X106013333Y-69302381D01*
X106489524Y-69302381D01*
X107394286Y-70302381D02*
X106822857Y-70302381D01*
X107108571Y-70302381D02*
X107108571Y-69302381D01*
X107013333Y-69445238D01*
X106918095Y-69540476D01*
X106822857Y-69588095D01*
M02*
