G04 #@! TF.FileFunction,Legend,Bot*
%FSLAX46Y46*%
G04 Gerber Fmt 4.6, Leading zero omitted, Abs format (unit mm)*
G04 Created by KiCad (PCBNEW (2015-09-06 BZR 6161, Git 6b3ff2d)-product) date 22.02.2016 21:54:41*
%MOMM*%
G01*
G04 APERTURE LIST*
%ADD10C,0.100000*%
%ADD11C,0.300000*%
G04 APERTURE END LIST*
D10*
D11*
X117545715Y-102977143D02*
X116402858Y-102977143D01*
X115402858Y-102048571D02*
X115117144Y-102048571D01*
X114974286Y-102120000D01*
X114831429Y-102262857D01*
X114760001Y-102548571D01*
X114760001Y-103048571D01*
X114831429Y-103334286D01*
X114974286Y-103477143D01*
X115117144Y-103548571D01*
X115402858Y-103548571D01*
X115545715Y-103477143D01*
X115688572Y-103334286D01*
X115760001Y-103048571D01*
X115760001Y-102548571D01*
X115688572Y-102262857D01*
X115545715Y-102120000D01*
X115402858Y-102048571D01*
X114117143Y-102048571D02*
X114117143Y-103262857D01*
X114045715Y-103405714D01*
X113974286Y-103477143D01*
X113831429Y-103548571D01*
X113545715Y-103548571D01*
X113402857Y-103477143D01*
X113331429Y-103405714D01*
X113260000Y-103262857D01*
X113260000Y-102048571D01*
X112760000Y-102048571D02*
X111902857Y-102048571D01*
X112331428Y-103548571D02*
X112331428Y-102048571D01*
X117545715Y-97897143D02*
X116402858Y-97897143D01*
X116974287Y-98468571D02*
X116974287Y-97325714D01*
X115402858Y-96968571D02*
X115117144Y-96968571D01*
X114974286Y-97040000D01*
X114831429Y-97182857D01*
X114760001Y-97468571D01*
X114760001Y-97968571D01*
X114831429Y-98254286D01*
X114974286Y-98397143D01*
X115117144Y-98468571D01*
X115402858Y-98468571D01*
X115545715Y-98397143D01*
X115688572Y-98254286D01*
X115760001Y-97968571D01*
X115760001Y-97468571D01*
X115688572Y-97182857D01*
X115545715Y-97040000D01*
X115402858Y-96968571D01*
X114117143Y-96968571D02*
X114117143Y-98182857D01*
X114045715Y-98325714D01*
X113974286Y-98397143D01*
X113831429Y-98468571D01*
X113545715Y-98468571D01*
X113402857Y-98397143D01*
X113331429Y-98325714D01*
X113260000Y-98182857D01*
X113260000Y-96968571D01*
X112760000Y-96968571D02*
X111902857Y-96968571D01*
X112331428Y-98468571D02*
X112331428Y-96968571D01*
X115545715Y-92817143D02*
X114402858Y-92817143D01*
X114974287Y-93388571D02*
X114974287Y-92245714D01*
X113688572Y-93388571D02*
X113688572Y-91888571D01*
X112974286Y-93388571D02*
X112974286Y-91888571D01*
X112117143Y-93388571D01*
X112117143Y-91888571D01*
X115545715Y-87737143D02*
X114402858Y-87737143D01*
X113688572Y-88308571D02*
X113688572Y-86808571D01*
X112974286Y-88308571D02*
X112974286Y-86808571D01*
X112117143Y-88308571D01*
X112117143Y-86808571D01*
X117402856Y-52177143D02*
X116259999Y-52177143D01*
X116831428Y-52748571D02*
X116831428Y-51605714D01*
X115617142Y-51391429D02*
X115545713Y-51320000D01*
X115402856Y-51248571D01*
X115045713Y-51248571D01*
X114902856Y-51320000D01*
X114831427Y-51391429D01*
X114759999Y-51534286D01*
X114759999Y-51677143D01*
X114831427Y-51891429D01*
X115688570Y-52748571D01*
X114759999Y-52748571D01*
X113474285Y-51748571D02*
X113474285Y-52748571D01*
X113831428Y-51177143D02*
X114188571Y-52248571D01*
X113259999Y-52248571D01*
X112902857Y-51248571D02*
X112402857Y-52748571D01*
X111902857Y-51248571D01*
X115188572Y-46240000D02*
X115331429Y-46168571D01*
X115545715Y-46168571D01*
X115760000Y-46240000D01*
X115902858Y-46382857D01*
X115974286Y-46525714D01*
X116045715Y-46811429D01*
X116045715Y-47025714D01*
X115974286Y-47311429D01*
X115902858Y-47454286D01*
X115760000Y-47597143D01*
X115545715Y-47668571D01*
X115402858Y-47668571D01*
X115188572Y-47597143D01*
X115117143Y-47525714D01*
X115117143Y-47025714D01*
X115402858Y-47025714D01*
X114474286Y-47668571D02*
X114474286Y-46168571D01*
X113617143Y-47668571D01*
X113617143Y-46168571D01*
X112902857Y-47668571D02*
X112902857Y-46168571D01*
X112545714Y-46168571D01*
X112331429Y-46240000D01*
X112188571Y-46382857D01*
X112117143Y-46525714D01*
X112045714Y-46811429D01*
X112045714Y-47025714D01*
X112117143Y-47311429D01*
X112188571Y-47454286D01*
X112331429Y-47597143D01*
X112545714Y-47668571D01*
X112902857Y-47668571D01*
X113260000Y-42588571D02*
X113760000Y-41874286D01*
X114117143Y-42588571D02*
X114117143Y-41088571D01*
X113545715Y-41088571D01*
X113402857Y-41160000D01*
X113331429Y-41231429D01*
X113260000Y-41374286D01*
X113260000Y-41588571D01*
X113331429Y-41731429D01*
X113402857Y-41802857D01*
X113545715Y-41874286D01*
X114117143Y-41874286D01*
X112760000Y-42588571D02*
X111974286Y-41588571D01*
X112760000Y-41588571D02*
X111974286Y-42588571D01*
X113974286Y-36008571D02*
X113117143Y-36008571D01*
X113545714Y-37508571D02*
X113545714Y-36008571D01*
X112760000Y-37508571D02*
X111974286Y-36508571D01*
X112760000Y-36508571D02*
X111974286Y-37508571D01*
M02*
