M48
;DRILL file {KiCad (2015-09-06 BZR 6161, Git 6b3ff2d)-product} date 22.02.2016 21:55:04
;FORMAT={-:-/ absolute / metric / decimal}
FMAT,2
METRIC,TZ
T1C0.400
T2C0.762
T3C0.800
T4C0.813
T5C1.000
T6C1.001
T7C1.016
T8C1.300
T9C3.048
%
G90
G05
M71
T1
X67.31Y-57.23
X67.31Y-59.77
X67.31Y-62.31
X67.31Y-64.85
X67.31Y-67.39
X67.31Y-69.93
X67.31Y-72.47
X67.31Y-75.01
X67.31Y-87.71
X67.31Y-90.25
X67.31Y-92.79
X67.31Y-95.33
X67.31Y-97.87
X67.31Y-100.41
X67.31Y-102.95
X67.31Y-105.49
X74.93Y-57.23
X74.93Y-59.77
X74.93Y-62.31
X74.93Y-64.85
X74.93Y-67.39
X74.93Y-69.93
X74.93Y-72.47
X74.93Y-75.01
X74.93Y-87.71
X74.93Y-90.25
X74.93Y-92.79
X74.93Y-95.33
X74.93Y-97.87
X74.93Y-100.41
X74.93Y-102.95
X74.93Y-105.49
X76.835Y-50.8
X77.47Y-86.44
X78.74Y-50.8
X81.915Y-86.36
X85.09Y-88.98
T2
X104.14Y-43.18
X104.14Y-45.72
X104.14Y-48.26
T3
X48.26Y-55.96
X48.26Y-58.5
X48.26Y-61.04
X48.26Y-63.58
X48.26Y-66.12
X48.26Y-68.66
X48.26Y-71.2
X48.26Y-73.74
X48.26Y-76.28
X48.26Y-83.9
X48.26Y-86.44
X48.26Y-88.98
X48.26Y-91.52
X48.26Y-94.06
X48.26Y-96.6
X48.26Y-99.14
X48.26Y-101.68
X48.26Y-104.22
X55.88Y-55.96
X55.88Y-58.5
X55.88Y-61.04
X55.88Y-63.58
X55.88Y-66.12
X55.88Y-68.66
X55.88Y-71.2
X55.88Y-73.74
X55.88Y-76.28
X55.88Y-83.9
X55.88Y-86.44
X55.88Y-88.98
X55.88Y-91.52
X55.88Y-94.06
X55.88Y-96.6
X55.88Y-99.14
X55.88Y-101.68
X55.88Y-104.22
X60.96Y-55.96
X60.96Y-58.5
X60.96Y-61.04
X60.96Y-63.58
X60.96Y-66.12
X60.96Y-68.66
X60.96Y-71.2
X60.96Y-73.74
X60.96Y-76.28
X60.96Y-83.9
X60.96Y-86.44
X60.96Y-88.98
X60.96Y-91.52
X60.96Y-94.06
X60.96Y-96.6
X60.96Y-99.14
X60.96Y-101.68
X60.96Y-104.22
X68.58Y-55.96
X68.58Y-58.5
X68.58Y-61.04
X68.58Y-63.58
X68.58Y-66.12
X68.58Y-68.66
X68.58Y-71.2
X68.58Y-73.74
X68.58Y-76.28
X68.58Y-83.9
X68.58Y-86.44
X68.58Y-88.98
X68.58Y-91.52
X68.58Y-94.06
X68.58Y-96.6
X68.58Y-99.14
X68.58Y-101.68
X68.58Y-104.22
X73.66Y-48.34
X73.66Y-50.88
X73.66Y-53.42
X73.66Y-55.96
X73.66Y-58.5
X73.66Y-61.04
X73.66Y-63.58
X73.66Y-66.12
X73.66Y-68.66
X73.66Y-71.2
X73.66Y-73.74
X73.66Y-76.28
X73.66Y-83.9
X73.66Y-86.44
X73.66Y-88.98
X73.66Y-91.52
X73.66Y-94.06
X73.66Y-96.6
X73.66Y-99.14
X73.66Y-101.68
X73.66Y-104.22
X73.66Y-106.76
X73.66Y-109.3
X73.66Y-111.84
X78.74Y-44.53
X78.74Y-80.09
X83.74Y-44.53
X83.74Y-80.09
X88.9Y-48.34
X88.9Y-50.88
X88.9Y-53.42
X88.9Y-55.96
X88.9Y-58.5
X88.9Y-61.04
X88.9Y-63.58
X88.9Y-66.12
X88.9Y-68.66
X88.9Y-71.2
X88.9Y-73.74
X88.9Y-76.28
X88.9Y-83.9
X88.9Y-86.44
X88.9Y-88.98
X88.9Y-91.52
X88.9Y-94.06
X88.9Y-96.6
X88.9Y-99.14
X88.9Y-101.68
X88.9Y-104.22
X88.9Y-106.76
X88.9Y-109.3
X88.9Y-111.84
X92.71Y-44.45
X95.21Y-44.45
X96.52Y-29.21
X96.52Y-34.21
X101.6Y-106.68
X104.14Y-104.14
X104.14Y-109.22
T4
X53.34Y-24.13
X53.34Y-39.37
X55.88Y-24.13
X55.88Y-39.37
X58.42Y-24.13
X58.42Y-39.37
X60.96Y-24.13
X60.96Y-39.37
X63.5Y-24.13
X63.5Y-39.37
X66.04Y-24.13
X66.04Y-39.37
X68.58Y-24.13
X68.58Y-39.37
X71.12Y-24.13
X71.12Y-39.37
X73.66Y-24.13
X73.66Y-39.37
X76.2Y-24.13
X76.2Y-39.37
X78.74Y-24.13
X78.74Y-39.37
X81.28Y-24.13
X81.28Y-39.37
X83.82Y-24.13
X83.82Y-39.37
X86.36Y-24.13
X86.36Y-39.37
X88.9Y-24.13
X88.9Y-39.37
X99.06Y-82.55
X101.6Y-80.01
X101.6Y-85.09
T5
X53.34Y-50.8
X83.82Y-48.34
X88.9Y-78.74
X109.22Y-36.83
X109.22Y-41.91
X109.22Y-46.99
X109.22Y-52.07
X109.22Y-87.63
X109.22Y-92.71
X109.22Y-97.79
X109.22Y-102.87
T6
X92.71Y-48.34
X92.71Y-58.5
X92.71Y-83.9
X92.71Y-94.06
X92.71Y-99.06
X92.71Y-109.22
X97.79Y-53.66
X97.79Y-73.66
X97.79Y-104.14
X97.79Y-114.3
X104.14Y-55.88
X104.14Y-58.42
X104.14Y-60.96
X104.14Y-66.04
X104.14Y-76.2
X104.14Y-92.71
X104.14Y-95.25
X104.14Y-97.79
T7
X25.4Y-59.77
X25.4Y-62.31
X25.4Y-64.85
X25.4Y-67.39
X25.4Y-69.93
X25.4Y-72.47
X25.4Y-75.01
X25.4Y-77.55
X25.4Y-80.09
X25.4Y-82.63
X27.94Y-59.77
X27.94Y-62.31
X27.94Y-64.85
X27.94Y-67.39
X27.94Y-69.93
X27.94Y-72.47
X27.94Y-75.01
X27.94Y-77.55
X27.94Y-80.09
X27.94Y-82.63
X39.37Y-39.45
X39.37Y-41.99
X39.37Y-44.53
X39.37Y-47.07
X39.37Y-49.61
X39.37Y-52.15
X39.37Y-54.69
X39.37Y-57.23
X39.37Y-59.77
X39.37Y-62.31
X39.37Y-64.85
X39.37Y-67.39
X39.37Y-69.93
X39.37Y-72.47
X39.37Y-75.01
X39.37Y-77.55
X39.37Y-80.09
X39.37Y-82.63
X39.37Y-85.17
X39.37Y-87.71
X39.37Y-90.25
X39.37Y-92.79
X39.37Y-95.33
X39.37Y-97.87
X39.37Y-100.41
X41.91Y-39.45
X41.91Y-41.99
X41.91Y-44.53
X41.91Y-47.07
X41.91Y-49.61
X41.91Y-52.15
X41.91Y-54.69
X41.91Y-57.23
X41.91Y-59.77
X41.91Y-62.31
X41.91Y-64.85
X41.91Y-67.39
X41.91Y-69.93
X41.91Y-72.47
X41.91Y-75.01
X41.91Y-77.55
X41.91Y-80.09
X41.91Y-82.63
X41.91Y-85.17
X41.91Y-87.71
X41.91Y-90.25
X41.91Y-92.79
X41.91Y-95.33
X41.91Y-97.87
X41.91Y-100.41
T8
X113.03Y-58.42
X113.03Y-80.92
T9
X25.Y-25.
X25.Y-115.
X115.Y-25.
X115.Y-115.
T0
M30
